<svg version="1.1" xmlns="http://www.w3.org/2000/svg" viewBox="0 0 217 211" width="217" height="211"><!-- svg-source:excalidraw --><metadata></metadata><defs><style class="style-fonts">
      </style></defs><rect x="0" y="0" width="217" height="211" fill="#ffffff"></rect><g stroke-linecap="round" transform="translate(10 10) rotate(0 98.5 95.5)"><path d="M32 0 C60.71 -1.11, 87.74 -0.46, 165 0 M32 0 C80.95 0.79, 130.92 2.11, 165 0 M165 0 C187.46 0.57, 196.72 12.41, 197 32 M165 0 C187.54 -0.81, 197.84 12.33, 197 32 M197 32 C197.43 82.69, 197.63 132.12, 197 159 M197 32 C197.21 68.44, 197.52 103.37, 197 159 M197 159 C196.79 179.31, 185.78 190.91, 165 191 M197 159 C195.2 179.57, 187.91 188.86, 165 191 M165 191 C124.95 192.01, 85.77 191.36, 32 191 M165 191 C129.6 191.09, 93.35 189.73, 32 191 M32 191 C12.26 189.12, -1.47 179.42, 0 159 M32 191 C12.83 189.52, 1.33 181.12, 0 159 M0 159 C1.66 117.41, -0.68 76.05, 0 32 M0 159 C-0.26 122.95, -1.56 89.47, 0 32 M0 32 C1.93 11.5, 11.69 1.62, 32 0 M0 32 C-1.43 9.14, 12.27 0.69, 32 0" stroke="#1e1e1e" stroke-width="2" fill="none"></path></g></svg>