<svg xmlns="http://www.w3.org/2000/svg" version="1.1" viewBox="0 0 237.5 238" width="237.5" height="238"><metadata></metadata><defs><style class="style-fonts">
      </style></defs><rect x="0" y="0" width="237.5" height="238" fill="#ffffff"></rect><g stroke-linecap="round" transform="translate(10 10) rotate(0 108.75 109)"><path d="M32 0 C90.68 0.71, 148.42 -0.59, 185.5 0 M32 0 C71.24 -0.18, 109.31 -1.89, 185.5 0 M185.5 0 C205.52 -1.81, 218.82 9.62, 217.5 32 M185.5 0 C206.99 1.94, 219.64 11.42, 217.5 32 M217.5 32 C219.8 78.03, 216.33 124.24, 217.5 186 M217.5 32 C217.08 66.18, 216.22 100.06, 217.5 186 M217.5 186 C217.74 206.98, 206.07 218.72, 185.5 218 M217.5 186 C219.36 205.58, 205.15 220.05, 185.5 218 M185.5 218 C151.35 218.4, 111.31 218.2, 32 218 M185.5 218 C133.58 219.35, 80.9 218.1, 32 218 M32 218 C9.54 219.46, -1.5 209.29, 0 186 M32 218 C9.95 216.69, 0.76 205.15, 0 186 M0 186 C1.49 156.74, 1.22 123.45, 0 32 M0 186 C0.25 151.72, 0.2 116.19, 0 32 M0 32 C0.85 10.07, 12.45 0.6, 32 0 M0 32 C0.37 11.96, 9.85 -1.95, 32 0" stroke="#1e1e1e" stroke-width="4" fill="none"></path></g></svg>